<svg id="Layer_1" data-name="Layer 1" xmlns="http://www.w3.org/2000/svg" width="1.55in" height="0.84in" viewBox="0 0 111.37 60.61"><defs><style>.cls-1{fill:#fff;}.cls-2{fill:none;}</style></defs><title>aauwlogo</title><path class="cls-1" d="M405.62,295.16a20,20,0,0,0,7.52,15.66l-6.12-23A20,20,0,0,0,405.62,295.16Z" transform="translate(-334.44 -275.07)"/><path class="cls-1" d="M416.19,309.71a55.67,55.67,0,0,1,1.79-8l5.87-19.92h4l6.16,20.1a61.18,61.18,0,0,1,1.82,7.84,66.93,66.93,0,0,1,1.61-7.75l4.68-18.32a20.05,20.05,0,0,0-32.4-.65l4.86,19A75.34,75.34,0,0,1,416.19,309.71Z" transform="translate(-334.44 -275.07)"/><path class="cls-1" d="M439.08,310.14a20,20,0,0,0,5.7-21.3Z" transform="translate(-334.44 -275.07)"/><path class="cls-2" d="M371.09,296.65q-.55-1.44-1.13-3.52a31.5,31.5,0,0,1-1.05,3.52L366,304.21h7.9Z" transform="translate(-334.44 -275.07)"/><polygon class="cls-2" points="5.88 31.7 2.88 39.44 18.69 39.44 15.66 31.7 5.88 31.7"/><path class="cls-2" d="M346.38,296.65q-.55-1.44-1.13-3.52a31.5,31.5,0,0,1-1.05,3.52l-2.87,7.56h7.9Z" transform="translate(-334.44 -275.07)"/><polygon class="cls-2" points="30.59 31.7 27.59 39.44 43.4 39.44 40.37 31.7 30.59 31.7"/><path class="cls-1" d="M337.32,314.51l3-7.75h9.78l3,7.75h2.94L346.48,290h-2.39l-9.65,24.5h0v0Zm6.87-17.86a31.5,31.5,0,0,0,1.05-3.52q.58,2.09,1.13,3.52l2.84,7.56h-7.9Z" transform="translate(-334.44 -275.07)"/><path class="cls-1" d="M427.53,292.59q-.47-1.46-1.05-3.68a21.46,21.46,0,0,1-.6-2.67,51,51,0,0,1-1.57,6.48l-6.18,21a20.26,20.26,0,0,0,2.26.75H396.21a8.39,8.39,0,0,0,3.84-2,8.6,8.6,0,0,0,2.52-6.56V290.12h-2.84V306a6.33,6.33,0,0,1-1.67,4.72,6.5,6.5,0,0,1-4.76,1.64,6.73,6.73,0,0,1-4.91-1.64,6.27,6.27,0,0,1-1.67-4.69V290.12h-2.84v15.73a8.91,8.91,0,0,0,2.41,6.61,7.92,7.92,0,0,0,3.76,2.05h-9.28L371.19,290H368.8l-9.64,24.49h-24.7v.72h90.86l.4,0a20,20,0,0,0,8.13-1.73Zm-58.63,4.06a31.5,31.5,0,0,0,1.05-3.52q.58,2.09,1.13,3.52l2.84,7.56H366ZM362,314.51l3-7.75h9.78l3,7.75Z" transform="translate(-334.44 -275.07)"/><path class="cls-1" d="M340.35,333.17a2.2,2.2,0,0,1-.86,1.84,3.72,3.72,0,0,1-2.33.66,5.83,5.83,0,0,1-2.45-.41v-1a6.44,6.44,0,0,0,1.2.37,6.32,6.32,0,0,0,1.29.13,2.59,2.59,0,0,0,1.57-.4,1.3,1.3,0,0,0,.53-1.1,1.41,1.41,0,0,0-.19-.76,1.74,1.74,0,0,0-.62-.55,8.75,8.75,0,0,0-1.33-.57,4.25,4.25,0,0,1-1.79-1.06,2.34,2.34,0,0,1-.54-1.6,2,2,0,0,1,.78-1.65,3.23,3.23,0,0,1,2.06-.61,6.07,6.07,0,0,1,2.46.49l-.32.91a5.55,5.55,0,0,0-2.16-.47,2.08,2.08,0,0,0-1.29.36,1.17,1.17,0,0,0-.47,1,1.51,1.51,0,0,0,.17.76,1.62,1.62,0,0,0,.58.55,7.23,7.23,0,0,0,1.25.55,4.94,4.94,0,0,1,1.94,1.08A2.12,2.12,0,0,1,340.35,333.17Z" transform="translate(-334.44 -275.07)"/><path class="cls-1" d="M350.46,335.56h-1v-8h-2.84v-.92h6.71v.92h-2.84Z" transform="translate(-334.44 -275.07)"/><path class="cls-1" d="M372.87,330.87h3v4.35a9.71,9.71,0,0,1-1.45.34,10.94,10.94,0,0,1-1.7.12,4.13,4.13,0,0,1-3.17-1.21,4.77,4.77,0,0,1-1.13-3.39,5.13,5.13,0,0,1,.56-2.45,3.79,3.79,0,0,1,1.61-1.6,5.23,5.23,0,0,1,2.47-.55,6.74,6.74,0,0,1,2.67.53l-.4.92a6,6,0,0,0-2.33-.51,3.34,3.34,0,0,0-2.55,1,3.78,3.78,0,0,0-.92,2.7,3.86,3.86,0,0,0,.89,2.75,3.41,3.41,0,0,0,2.6.94,7.69,7.69,0,0,0,1.82-.21V331.8h-2Z" transform="translate(-334.44 -275.07)"/><path class="cls-1" d="M388.58,335.56h-5v-9h5v.92h-4v2.89h3.71v.92h-3.71v3.3h4Z" transform="translate(-334.44 -275.07)"/><path class="cls-1" d="M403.86,331.07a4.93,4.93,0,0,1-1.09,3.38,3.82,3.82,0,0,1-3,1.23,3.87,3.87,0,0,1-3.05-1.21,5,5,0,0,1-1.07-3.42,4.9,4.9,0,0,1,1.08-3.39,3.9,3.9,0,0,1,3.06-1.2,3.82,3.82,0,0,1,3,1.22A4.93,4.93,0,0,1,403.86,331.07Zm-7.14,0a4.25,4.25,0,0,0,.77,2.76,2.75,2.75,0,0,0,2.25.94,2.72,2.72,0,0,0,2.25-.94,5.37,5.37,0,0,0,0-5.5,2.71,2.71,0,0,0-2.24-.93,2.76,2.76,0,0,0-2.26.94A4.21,4.21,0,0,0,396.72,331.07Z" transform="translate(-334.44 -275.07)"/><path class="cls-1" d="M412.41,331.83v3.72h-1v-9h2.46a3.87,3.87,0,0,1,2.43.63,2.29,2.29,0,0,1,.79,1.9,2.38,2.38,0,0,1-1.8,2.4l2.43,4h-1.23l-2.17-3.72Zm0-.89h1.43a2.46,2.46,0,0,0,1.62-.44,1.63,1.63,0,0,0,.51-1.31,1.5,1.5,0,0,0-.52-1.28,2.84,2.84,0,0,0-1.68-.39h-1.35Z" transform="translate(-334.44 -275.07)"/><path class="cls-1" d="M428.58,330.87h3v4.35a9.69,9.69,0,0,1-1.45.34,10.94,10.94,0,0,1-1.7.12,4.12,4.12,0,0,1-3.17-1.21,4.77,4.77,0,0,1-1.13-3.39,5.13,5.13,0,0,1,.56-2.45,3.8,3.8,0,0,1,1.61-1.6,5.23,5.23,0,0,1,2.47-.55,6.74,6.74,0,0,1,2.67.53l-.4.92a6,6,0,0,0-2.33-.51,3.34,3.34,0,0,0-2.55,1,3.78,3.78,0,0,0-.92,2.7,3.86,3.86,0,0,0,.89,2.75,3.41,3.41,0,0,0,2.6.94,7.7,7.7,0,0,0,1.82-.21V331.8h-2Z" transform="translate(-334.44 -275.07)"/><path class="cls-1" d="M444.29,335.56h-5v-9h5v.92h-4v2.89h3.71v.92h-3.71v3.3h4Z" transform="translate(-334.44 -275.07)"/></svg>